<mxfile host="app.diagrams.net" agent="Mozilla/5.0 (Windows NT 10.0; Win64; x64) AppleWebKit/537.36 (KHTML, like Gecko) Chrome/131.0.0.0 Safari/537.36" version="26.0.3">
  <diagram name="第 1 页" id="4vHNmLcoqC2cnDZUvf0n">
    <mxGraphModel>
      <root>
        <mxCell id="0" />
        <mxCell id="1" parent="0" />
        <mxCell id="2" value="Deep Learning Framework" style="whiteSpace=wrap;strokeWidth=2;verticalAlign=top;" vertex="1" parent="1">
          <mxGeometry x="8" y="8" width="266" height="645" as="geometry" />
        </mxCell>
        <mxCell id="3" value="Input" style="fillColor=none;strokeColor=none;" vertex="1" parent="2">
          <mxGeometry x="92" y="46" width="97" height="54" as="geometry" />
        </mxCell>
        <mxCell id="4" value="Preprocessing" style="fillColor=none;strokeColor=none;" vertex="1" parent="2">
          <mxGeometry x="62" y="175" width="158" height="54" as="geometry" />
        </mxCell>
        <mxCell id="5" value="Model Architecture" style="fillColor=none;strokeColor=none;" vertex="1" parent="2">
          <mxGeometry x="43" y="304" width="196" height="54" as="geometry" />
        </mxCell>
        <mxCell id="6" value="Training" style="fillColor=none;strokeColor=none;" vertex="1" parent="2">
          <mxGeometry x="83" y="433" width="117" height="54" as="geometry" />
        </mxCell>
        <mxCell id="7" value="Evaluation" style="fillColor=none;strokeColor=none;" vertex="1" parent="2">
          <mxGeometry x="74" y="562" width="135" height="54" as="geometry" />
        </mxCell>
        <mxCell id="8" value="" style="curved=1;startArrow=circle;startFill=0;endArrow=circle;endFill=0;exitX=0.51;exitY=0.99;entryX=0.5;entryY=-0.01;" edge="1" parent="2" source="3" target="4">
          <mxGeometry relative="1" as="geometry">
            <Array as="points" />
          </mxGeometry>
        </mxCell>
        <mxCell id="9" value="" style="curved=1;startArrow=none;endArrow=circle;endFill=0;exitX=0.5;exitY=0.99;entryX=0.5;entryY=-0.01;" edge="1" parent="2" source="4" target="5">
          <mxGeometry relative="1" as="geometry">
            <Array as="points" />
          </mxGeometry>
        </mxCell>
        <mxCell id="10" value="" style="curved=1;startArrow=none;endArrow=circle;endFill=0;exitX=0.5;exitY=0.99;entryX=0.5;entryY=-0.01;" edge="1" parent="2" source="5" target="6">
          <mxGeometry relative="1" as="geometry">
            <Array as="points" />
          </mxGeometry>
        </mxCell>
        <mxCell id="11" value="" style="curved=1;startArrow=none;endArrow=circle;endFill=0;exitX=0.5;exitY=0.99;entryX=0.5;entryY=-0.01;" edge="1" parent="2" source="6" target="7">
          <mxGeometry relative="1" as="geometry">
            <Array as="points" />
          </mxGeometry>
        </mxCell>
      </root>
    </mxGraphModel>
  </diagram>
</mxfile>
